<?xml version="1.0" standalone="no"?>
<!DOCTYPE svg PUBLIC "-//W3C//DTD SVG 20010904//EN"
 "http://www.w3.org/TR/2001/REC-SVG-20010904/DTD/svg10.dtd">
<svg version="1.0" xmlns="http://www.w3.org/2000/svg"
 width="500.000000pt" height="500.000000pt" viewBox="0 0 500.000000 500.000000"
 preserveAspectRatio="xMidYMid meet">
<metadata>
Created by potrace 1.14, written by Peter Selinger 2001-2017
</metadata>
<g transform="translate(0.000000,500.000000) scale(0.100000,-0.100000)"
fill="#000000" stroke="none">
<path d="M1810 4443 c-8 -3 -23 -14 -33 -24 -18 -17 -18 -17 0 -23 30 -10 84
-67 104 -111 34 -74 20 -170 -34 -232 -28 -32 -90 -69 -108 -65 -4 1 -15 -8
-24 -18 -10 -11 -13 -20 -7 -20 6 0 23 -12 37 -26 33 -33 144 -202 151 -231 6
-22 -13 -70 -48 -123 -9 -14 -20 -37 -23 -52 -6 -25 -4 -28 17 -28 15 0 46 21
87 60 35 34 66 58 70 54 3 -4 0 -9 -6 -11 -8 -3 -13 -22 -13 -46 -1 -23 -7
-60 -15 -82 -8 -22 -15 -53 -15 -70 0 -16 -5 -37 -10 -45 -13 -21 15 -48 59
-56 20 -4 45 -11 55 -17 11 -5 50 -16 87 -24 64 -13 70 -12 87 5 14 14 31 18
65 16 l47 -3 -15 29 c-17 33 -21 150 -5 150 6 0 10 9 10 20 0 11 3 20 8 20 4
0 8 21 10 47 3 46 34 101 58 102 13 1 29 30 25 46 -2 6 0 7 4 4 3 -4 28 2 56
12 27 11 73 19 102 20 l52 1 -45 9 c-25 5 -46 13 -48 19 -2 5 -16 10 -30 10
-15 0 -40 9 -57 20 -16 11 -45 20 -62 20 -48 0 -43 32 12 83 40 36 46 45 43
76 -2 28 -8 36 -28 41 -22 5 -26 13 -31 59 -8 60 -13 68 -33 52 -8 -7 -33 -11
-56 -9 -45 3 -49 9 -81 117 -14 45 -123 153 -179 178 -85 38 -202 60 -240 46z
m172 -490 c27 -24 24 -90 -7 -127 -21 -27 -22 -31 -9 -51 13 -20 13 -23 0 -28
-29 -12 -56 53 -56 135 0 41 3 78 7 81 12 12 46 7 65 -10z m113 -233 c-3 -4
-14 -10 -25 -13 -14 -4 -20 0 -20 13 0 13 6 16 25 12 14 -2 23 -8 20 -12z"/>
<path d="M1430 4161 c0 -19 -6 -34 -15 -37 -12 -5 -15 -25 -15 -90 0 -81 1
-84 25 -90 32 -8 91 3 121 23 13 8 28 12 33 9 5 -4 12 -2 15 3 3 5 -8 14 -24
21 -17 7 -30 17 -30 22 0 5 -12 19 -26 31 -14 12 -34 47 -44 77 -21 62 -40 77
-40 31z"/>
<path d="M1568 3952 c-22 -3 -28 -9 -28 -27 0 -30 17 -35 76 -23 47 10 73 23
63 32 -9 9 -84 21 -111 18z"/>
<path d="M1577 3853 c-7 -36 7 -69 31 -75 26 -7 42 9 42 43 0 55 -63 83 -73
32z"/>
<path d="M2852 3601 c13 -15 27 -26 32 -23 5 3 6 0 2 -7 -4 -6 -1 -23 8 -36
21 -33 21 -147 -1 -211 -25 -74 -93 -160 -119 -150 -8 3 -13 2 -10 -3 10 -15
-96 -50 -159 -53 -33 -1 -70 3 -82 10 -31 17 -47 15 -74 -12 -13 -13 -34 -26
-46 -30 -37 -12 -28 -49 47 -201 67 -136 71 -142 117 -165 27 -13 50 -26 53
-30 3 -4 28 -20 55 -35 28 -16 52 -33 53 -37 2 -4 9 -8 15 -8 15 0 117 -71
117 -82 0 -4 6 -8 14 -8 7 0 33 -11 57 -23 24 -13 81 -30 126 -37 74 -12 89
-12 145 4 45 12 74 28 101 54 35 34 37 39 37 101 0 62 -2 66 -39 101 -37 35
-43 38 -118 42 -44 2 -84 8 -91 11 -7 5 1 27 26 68 20 33 42 68 47 77 27 45
52 81 85 121 11 13 20 33 20 44 0 11 5 35 12 53 14 38 -3 129 -34 180 -29 51
-193 197 -245 220 -14 6 -28 15 -31 20 -10 13 -71 44 -88 44 -8 0 -14 7 -14
15 0 9 -9 15 -21 15 -20 0 -20 0 3 -29z"/>
<path d="M1573 3609 c-30 -11 -20 -42 11 -33 31 9 39 19 24 31 -8 7 -22 7 -35
2z"/>
<path d="M1422 2807 c-23 -24 -32 -97 -12 -97 6 0 10 -7 10 -15 0 -8 6 -15 13
-15 6 0 25 -7 40 -15 25 -13 32 -13 49 -1 25 18 48 61 48 91 0 12 -11 34 -25
49 -32 35 -92 36 -123 3z"/>
<path d="M1757 2730 c-20 -15 -59 -38 -87 -51 -27 -13 -50 -26 -50 -30 0 -17
42 -38 108 -53 72 -17 73 -17 107 4 35 21 41 38 35 95 -2 21 -33 51 -61 58 -9
2 -32 -8 -52 -23z"/>
<path d="M1290 2081 c-64 -7 -140 -30 -192 -57 -14 -8 -31 -14 -37 -14 -19 0
-124 -78 -184 -137 -106 -105 -180 -238 -209 -378 -24 -116 -10 -321 27 -402
8 -17 15 -36 15 -41 0 -20 79 -147 127 -202 26 -32 72 -74 101 -96 29 -21 58
-43 65 -49 28 -23 146 -72 227 -95 78 -22 236 -24 320 -5 79 18 101 26 190 69
56 27 91 47 100 56 3 3 27 23 53 45 80 64 167 188 209 297 11 29 29 100 40
158 19 102 19 108 2 215 -9 61 -23 120 -31 132 -7 12 -13 29 -13 38 0 15 -38
94 -51 105 -3 3 -16 23 -29 45 -39 65 -198 215 -228 215 -5 0 -15 7 -22 16 -8
9 -25 14 -44 12 -28 -3 -32 -8 -42 -53 -7 -27 -17 -66 -23 -85 -21 -67 -15
-95 28 -124 63 -44 161 -159 161 -189 0 -7 5 -18 10 -23 6 -6 20 -49 31 -95
20 -82 20 -86 3 -174 -22 -115 -68 -203 -144 -275 -31 -30 -63 -60 -71 -65
-31 -23 -101 -55 -120 -55 -11 0 -34 -7 -50 -16 -23 -11 -52 -14 -117 -12 -91
4 -118 12 -220 61 -113 54 -225 193 -254 315 -14 60 -14 184 0 242 26 108 133
258 217 303 98 53 133 64 220 71 90 7 110 21 121 84 3 20 14 62 24 92 10 30
15 58 11 62 -11 12 -148 17 -221 9z"/>
<path d="M3470 2080 c-75 -9 -146 -31 -207 -63 -18 -10 -33 -20 -33 -23 0 -8
22 -47 34 -61 6 -6 29 -37 50 -68 22 -30 49 -58 61 -61 11 -3 38 3 60 12 30
13 69 17 155 17 114 0 167 -13 230 -53 8 -6 26 -15 39 -20 41 -18 135 -124
168 -191 36 -71 63 -171 63 -229 0 -168 -123 -366 -272 -437 -101 -49 -128
-56 -213 -61 -140 -7 -280 52 -382 161 -50 54 -107 157 -118 212 -4 22 -12 43
-18 47 -16 10 -235 10 -240 1 -7 -13 20 -154 32 -166 6 -6 11 -19 11 -30 0
-24 66 -135 125 -209 43 -55 196 -178 221 -178 7 0 14 -3 16 -7 2 -5 28 -17
58 -29 221 -85 458 -66 656 51 97 58 143 99 235 214 15 20 66 118 100 196 12
28 31 139 36 213 5 68 -19 215 -43 269 -8 17 -14 35 -14 40 0 32 -93 172 -159
238 -65 67 -101 93 -180 135 -138 74 -295 100 -471 80z"/>
<path d="M2906 2014 c-14 -21 -26 -42 -26 -46 0 -7 -61 -144 -80 -179 -5 -9
-6 -19 -4 -22 10 -9 214 135 216 152 3 38 -4 55 -41 93 l-38 41 -27 -39z"/>
<path d="M3011 1823 c-28 -32 -51 -63 -51 -70 0 -6 -6 -18 -13 -25 -7 -7 -23
-33 -34 -58 -54 -117 -72 -190 -51 -208 15 -12 193 -13 226 -1 12 5 22 17 22
27 0 10 7 27 15 38 8 10 15 25 15 32 0 13 31 60 63 96 9 11 17 27 17 36 0 23
-127 190 -144 190 -7 0 -37 -26 -65 -57z"/>
<path d="M2623 1590 c-23 -5 -51 -14 -62 -19 -11 -6 -28 -11 -38 -11 -27 0
-88 -35 -173 -100 -90 -69 -109 -106 -90 -175 10 -36 17 -44 38 -47 19 -2 28
-12 37 -37 6 -18 22 -42 35 -53 29 -24 73 -20 172 12 142 47 181 77 193 150 6
36 11 41 46 50 35 10 39 14 39 43 0 18 -9 50 -20 72 -11 22 -20 45 -20 51 0
20 -69 74 -93 73 -12 -1 -41 -5 -64 -9z"/>
</g>
</svg>
